<svg width="702" height="630" viewBox="0 0 702 630" fill="none" xmlns="http://www.w3.org/2000/svg">
<g clip-path="url(#clip0_118_67)">
<defs>
<clipPath id="clip0_118_67">
<rect width="702" height="630" fill="white"/>
</clipPath>
</defs>
<path d="M242.593 101.35C285.292 94.5938 329.398 120.136 346.786 129.02C354.54 92.3898 328.418 66.0302 314.484 56.8309C299.563 46.6762 257.824 31.9698 210.243 54.3821C162.662 76.7944 144.635 122.351 141.57 142.328C157.453 131.483 199.895 108.106 242.593 101.35Z" fill="#5B8E00" stroke="#253C00" stroke-width="10"/>
<path d="M458.442 101.35C415.744 94.5938 371.637 120.136 354.25 129.02C346.496 92.3898 372.618 66.0302 386.552 56.8309C401.473 46.6762 443.212 31.9698 490.793 54.3821C538.374 76.7944 556.4 122.351 559.466 142.328C543.583 131.483 501.141 108.106 458.442 101.35Z" fill="#4C7800" stroke="#253C00" stroke-width="10"/>
<path d="M660 334.505C660 531.574 521.656 626 351 626C180.344 626 42 531.574 42 334.505C42 137.436 180.344 74 351 74C521.656 74 660 137.436 660 334.505Z" fill="#B7073C"/>
<path d="M585.897 377C606.697 262.2 550.981 152 524.648 114C613.848 137.2 672.731 227.833 686.897 267.5C709.064 325.167 723.297 463.8 602.897 557C482.497 650.2 332.981 636.833 279.648 617C276.148 617.667 263.647 618 351.897 605C440.148 592 559.897 520.5 585.897 377Z" fill="black" fill-opacity="0.19"/>
<path d="M189.5 152C137.9 169.6 91.3333 220.667 73 252.5L77.5 213C86 194.333 128.5 145.8 230.5 101C332.5 56.1999 457 92.3333 506.5 116L512.118 154.387C512.661 155.518 512.726 156.398 512.5 157L512.118 154.387C510.253 150.506 502.752 143.672 482 135C362 82.2003 225.5 123 185 174.5L189.5 152Z" fill="#CF0844"/>
<path d="M647.5 334.505C647.5 429.883 614.154 499.119 561.331 544.689C508.236 590.493 434.153 613.5 351 613.5C267.847 613.5 193.764 590.493 140.669 544.689C87.8463 499.119 54.5 429.883 54.5 334.505C54.5 239.258 87.7063 178.225 139.835 140.476C192.693 102.2 266.864 86.5 351 86.5C435.136 86.5 509.307 102.2 562.165 140.476C614.294 178.225 647.5 239.258 647.5 334.505Z" stroke="#5C041E" stroke-width="25"/>
<path d="M336 22H351V92H336V22Z" fill="#5B8E00"/>
<rect x="351" y="22" width="15" height="70" fill="#4C7800"/>
<path d="M331 39.3721V92H371V39.3721" stroke="#253C00" stroke-width="10"/>
<path d="M331 39.3721V92H371V39.3721" stroke="black" stroke-opacity="0.2" stroke-width="10"/>
<path d="M371 40.2209C371 28.5009 362.046 19 351 19C339.954 19 331 28.5009 331 40.2209" stroke="#253C00" stroke-width="10"/>
<path d="M371 40.2209C371 28.5009 362.046 19 351 19C339.954 19 331 28.5009 331 40.2209" stroke="black" stroke-opacity="0.2" stroke-width="10"/>
<path d="M244.431 122.633C278.031 95.4329 329 95.5 348.5 94.5C336.9 58.9001 301.098 49.133 284.431 48.133C266.431 46.7996 222.931 54.933 192.931 98.133C162.931 141.333 170.098 189.8 177.431 208.633C185.765 191.3 210.831 149.833 244.431 122.633Z" fill="#5B8E00" stroke="#253C00" stroke-width="10"/>
<path d="M457.069 122.633C423.469 95.4329 372.5 95.5 353 94.5C364.6 58.9001 400.402 49.133 417.069 48.133C435.069 46.7996 478.569 54.933 508.569 98.133C538.569 141.333 531.402 189.8 524.069 208.633C515.735 191.3 490.669 149.833 457.069 122.633Z" fill="#4C7800" stroke="#253C00" stroke-width="10"/>
<path d="M454.241 81.8336C416.32 57.0043 376.28 76.9504 361 89.9658C372 89.9658 404.131 91.1444 439.135 106.362C474.14 121.58 509.63 171.606 523 194.466C515.881 167.434 492.163 106.663 454.241 81.8336Z" fill="#5B8E00"/>
<path d="M247.759 81.8678C285.68 57.0385 325.72 76.9846 341 90C330 90 297.869 91.1786 262.865 106.397C227.86 121.615 192.37 171.64 179 194.5C186.119 167.468 209.837 106.697 247.759 81.8678Z" fill="#4C7800"/>
<rect x="64" y="361" width="583" height="12" fill="#5C041E"/>
</g>
</svg>
